<svg width="24" height="24" viewBox="0 0 24 24" fill="none" xmlns="http://www.w3.org/2000/svg">
<path d="M18.6499 15.1736C18.5899 15.1013 18.531 15.0291 18.4732 14.9594C17.6785 13.9981 17.1977 13.4179 17.1977 10.6967C17.1977 9.28786 16.8606 8.13189 16.1963 7.2649C15.7065 6.62442 15.0443 6.13855 14.1716 5.77948C14.1603 5.77323 14.1503 5.76503 14.1419 5.75527C13.828 4.70406 12.969 4 12.0001 4C11.0313 4 10.1726 4.70406 9.85869 5.75419C9.85031 5.76359 9.84043 5.77153 9.82943 5.77767C7.79275 6.61611 6.80295 8.22472 6.80295 10.6956C6.80295 13.4179 6.32286 13.9981 5.5274 14.9583C5.4696 15.028 5.41072 15.0988 5.35075 15.1725C5.19585 15.3593 5.09771 15.5866 5.06794 15.8274C5.03817 16.0683 5.07802 16.3126 5.18278 16.5315C5.40566 17.0011 5.8807 17.2926 6.42292 17.2926H17.5813C18.121 17.2926 18.5928 17.0015 18.8164 16.534C18.9216 16.3151 18.9618 16.0705 18.9323 15.8294C18.9028 15.5883 18.8048 15.3607 18.6499 15.1736Z" fill="#34475A"/>
<path d="M11.999 20C12.521 19.9996 13.0331 19.8579 13.4811 19.5899C13.9291 19.322 14.2963 18.9378 14.5436 18.4781C14.5552 18.4561 14.561 18.4314 14.5603 18.4065C14.5596 18.3816 14.5524 18.3573 14.5396 18.3359C14.5267 18.3146 14.5085 18.2969 14.4868 18.2847C14.4651 18.2724 14.4406 18.266 14.4157 18.2661H9.58299C9.55804 18.266 9.53349 18.2723 9.51173 18.2846C9.48998 18.2968 9.47175 18.3144 9.45884 18.3358C9.44593 18.3571 9.43876 18.3815 9.43805 18.4064C9.43733 18.4313 9.44309 18.456 9.45475 18.4781C9.70203 18.9378 10.0691 19.3219 10.517 19.5899C10.9649 19.8578 11.477 19.9995 11.999 20Z" fill="#34475A"/>
</svg>
