<svg width="182" height="16" viewBox="0 0 182 16" fill="none" xmlns="http://www.w3.org/2000/svg">
<path d="M141.28 0.00458318H135.511C135.389 -0.00832804 135.266 0.00612333 135.151 0.0468786C135.036 0.0876338 134.931 0.153661 134.845 0.240123C134.758 0.326586 134.692 0.431294 134.651 0.546579C134.611 0.661864 134.596 0.784805 134.609 0.906398V15.0671C134.601 15.1864 134.619 15.3059 134.662 15.4175C134.704 15.5291 134.771 15.6299 134.857 15.713C134.943 15.796 135.046 15.8593 135.159 15.8984C135.272 15.9375 135.392 15.9514 135.511 15.9391H141.28C143.344 15.9391 144.864 15.4547 145.818 14.4932C146.772 13.5318 147.249 12.0114 147.249 9.96927V5.9819C147.249 3.93232 146.765 2.41191 145.811 1.45047C144.857 0.489029 143.322 0.00458318 141.28 0.00458318ZM145.453 9.97672C145.487 10.8306 145.348 11.6825 145.043 12.4809C144.803 13.0486 144.351 13.5004 143.784 13.7405C142.985 14.045 142.133 14.1845 141.28 14.1504H136.398V1.7784H141.265C142.119 1.74052 142.971 1.8801 143.769 2.18832C144.335 2.42731 144.786 2.87602 145.028 3.44042C145.332 4.24167 145.472 5.09585 145.438 5.95209L145.453 9.97672Z" fill="#52A9FF"/>
<path d="M0.00715118 14.9554V0.831982C-0.00793991 0.730624 0.000928866 0.627141 0.0330468 0.52983C0.0651648 0.432519 0.119638 0.344088 0.192098 0.271628C0.264559 0.199167 0.352991 0.144694 0.450302 0.112576C0.547613 0.0804578 0.651096 0.0715889 0.752453 0.0866799H9.3905C9.49186 0.0715889 9.59534 0.0804578 9.69265 0.112576C9.78996 0.144694 9.87839 0.199167 9.95085 0.271628C10.0233 0.344088 10.0778 0.432519 10.1099 0.52983C10.142 0.627141 10.1509 0.730624 10.1358 0.831982C10.1509 0.933339 10.142 1.03682 10.1099 1.13413C10.0778 1.23144 10.0233 1.31988 9.95085 1.39234C9.87839 1.4648 9.78996 1.51927 9.69265 1.55139C9.59534 1.58351 9.49186 1.59237 9.3905 1.57728H1.49775V7.0627H6.71487C6.81622 7.04761 6.91971 7.05648 7.01702 7.0886C7.11433 7.12072 7.20276 7.17519 7.27522 7.24765C7.34768 7.32011 7.40215 7.40854 7.43427 7.50585C7.46639 7.60317 7.47526 7.70665 7.46017 7.80801C7.47526 7.90936 7.46639 8.01285 7.43427 8.11016C7.40215 8.20747 7.34768 8.2959 7.27522 8.36836C7.20276 8.44082 7.11433 8.49529 7.01702 8.52741C6.91971 8.55953 6.81622 8.5684 6.71487 8.55331H1.49775V14.9704C1.51285 15.0717 1.50398 15.1752 1.47186 15.2725C1.43974 15.3698 1.38527 15.4582 1.31281 15.5307C1.24035 15.6032 1.15192 15.6576 1.0546 15.6898C0.957293 15.7219 0.85381 15.7307 0.752453 15.7157C0.651096 15.7307 0.547613 15.7219 0.450302 15.6898C0.352991 15.6576 0.264559 15.6032 0.192098 15.5307C0.119638 15.4582 0.0651648 15.3698 0.0330468 15.2725C0.000928866 15.1752 -0.00793991 15.0717 0.00715118 14.9704" fill="#001A33"/>
<path d="M17.7971 14.4486C16.9773 13.6287 16.5674 12.3443 16.5674 10.5954V5.1472C16.5674 3.38332 16.9773 2.09644 17.7971 1.28654C18.617 0.476648 19.8914 0.0766691 21.6205 0.0866065H24.4825C26.2315 0.0866065 27.5159 0.494038 28.3357 1.3089C29.1481 2.12128 29.558 3.4032 29.558 5.16956V10.6103C29.558 12.3592 29.1506 13.6436 28.3357 14.4635C27.5208 15.2833 26.2364 15.6932 24.4825 15.6932H21.6205C19.8765 15.6932 18.5946 15.2833 17.7748 14.4635L17.7971 14.4486ZM24.4825 14.2175C25.2095 14.2484 25.9351 14.1291 26.614 13.8672C27.1182 13.652 27.5208 13.252 27.7395 12.7493C27.9976 12.0669 28.1142 11.3391 28.0823 10.6103V5.16956C28.1142 4.44312 27.9976 3.7178 27.7395 3.038C27.5237 2.53163 27.1204 2.12836 26.614 1.9126C25.9344 1.65387 25.209 1.53719 24.4825 1.56976H21.6205C20.8953 1.52435 20.1688 1.63359 19.489 1.89024C18.9851 2.10452 18.586 2.50892 18.3785 3.01564C18.1263 3.69685 18.0122 4.42146 18.0431 5.1472V10.6103C18.0131 11.3397 18.1323 12.0675 18.3934 12.7493C18.6108 13.2502 19.0104 13.6498 19.5113 13.8672C20.1905 14.1283 20.9159 14.2475 21.6429 14.2175H24.4825Z" fill="#001A33"/>
<path d="M49.324 15.1417C49.3173 15.2627 49.2813 15.3802 49.2189 15.4841C49.1566 15.588 49.0699 15.6752 48.9663 15.738C48.8378 15.8212 48.6869 15.8628 48.534 15.8572C48.413 15.8506 48.2955 15.8145 48.1916 15.7522C48.0877 15.6898 48.0006 15.6031 47.9377 15.4995L44.1292 9.29858H40.0524V14.9554C40.0524 15.1531 39.9739 15.3427 39.8341 15.4824C39.6944 15.6222 39.5048 15.7007 39.3071 15.7007C39.1095 15.7007 38.9199 15.6222 38.7801 15.4824C38.6404 15.3427 38.5618 15.1531 38.5618 14.9554V0.83195C38.5467 0.730593 38.5556 0.62711 38.5877 0.529799C38.6199 0.432488 38.6743 0.344057 38.7468 0.271596C38.8192 0.199136 38.9077 0.144663 39.005 0.112545C39.1023 0.0804266 39.2058 0.0715576 39.3071 0.0866487H44.8895C45.4617 0.0460951 46.0363 0.120852 46.5791 0.306487C47.1219 0.492123 47.6219 0.784857 48.0495 1.16734C48.434 1.5951 48.728 2.09626 48.9137 2.64062C49.0994 3.18498 49.1731 3.76129 49.1302 4.33487V5.08017C49.1879 6.1143 48.8908 7.13713 48.288 7.97939C47.6622 8.70477 46.776 9.15459 45.8211 9.2315L49.1973 14.7169C49.2818 14.842 49.3236 14.991 49.3165 15.1417H49.324ZM40.0524 7.82288H44.8895C45.6513 7.8895 46.4089 7.65394 46.9987 7.16701C47.4882 6.57574 47.724 5.81483 47.6545 5.05036V4.30506C47.6891 3.92764 47.649 3.54709 47.5365 3.18518C47.424 2.82327 47.2412 2.48709 46.9987 2.19585C46.7074 1.95331 46.3712 1.77055 46.0093 1.65802C45.6474 1.54548 45.2669 1.50537 44.8895 1.53999H40.0524V7.82288Z" fill="#001A33"/>
<path d="M70.2737 0.832043V14.9928C70.2888 15.0941 70.28 15.1976 70.2479 15.2949C70.2157 15.3922 70.1613 15.4807 70.0888 15.5531C70.0163 15.6256 69.9279 15.6801 69.8306 15.7122C69.7333 15.7443 69.6298 15.7532 69.5284 15.7381C69.3797 15.7267 69.2354 15.682 69.1064 15.6071C68.9773 15.5323 68.8668 15.4293 68.7831 15.3058L59.1911 2.92634V14.9555C59.1911 15.1532 59.1126 15.3427 58.9728 15.4825C58.833 15.6223 58.6435 15.7008 58.4458 15.7008C58.2481 15.7008 58.0586 15.6223 57.9188 15.4825C57.779 15.3427 57.7005 15.1532 57.7005 14.9555V0.832043C57.6854 0.730685 57.6943 0.627202 57.7264 0.529891C57.7585 0.43258 57.813 0.344149 57.8855 0.271689C57.9579 0.199228 58.0463 0.144755 58.1437 0.112637C58.241 0.0805188 58.3445 0.0716499 58.4458 0.086741C58.5952 0.0952762 58.7406 0.138852 58.87 0.213947C58.9995 0.289042 59.1095 0.393547 59.1911 0.519016L68.7981 12.8761V0.832043C68.7981 0.634376 68.8766 0.444806 69.0163 0.305035C69.1561 0.165264 69.3457 0.086741 69.5434 0.086741C69.741 0.086741 69.9306 0.165264 70.0704 0.305035C70.2101 0.444806 70.2887 0.634376 70.2887 0.832043" fill="#001A33"/>
<path d="M80.4993 14.4486C79.6794 13.6287 79.2695 12.3443 79.2695 10.5954V5.1472C79.2695 3.38332 79.6794 2.09644 80.4993 1.28654C81.3191 0.476648 82.601 0.0766691 84.345 0.0866065H87.207C88.9609 0.0866065 90.2453 0.494038 91.0602 1.3089C91.88 2.12128 92.29 3.4032 92.29 5.16956V10.6103C92.29 12.3592 91.88 13.6436 91.0602 14.4635C90.2404 15.2833 88.956 15.6932 87.207 15.6932H84.345C82.601 15.6932 81.3191 15.2833 80.4993 14.4635V14.4486ZM87.207 14.2175C87.9364 14.2475 88.6643 14.1283 89.346 13.8672C89.8469 13.6498 90.2465 13.2502 90.464 12.7493C90.7221 12.0669 90.8387 11.3391 90.8068 10.6103V5.16956C90.8387 4.44312 90.7221 3.7178 90.464 3.038C90.2487 2.53388 89.8487 2.13122 89.346 1.9126C88.6636 1.65449 87.9359 1.53785 87.207 1.56976H84.3227C83.5975 1.52435 82.8709 1.63359 82.1911 1.89024C81.6886 2.10654 81.2902 2.51027 81.0806 3.01564C80.8284 3.69685 80.7144 4.42146 80.7452 5.1472V10.6103C80.7153 11.3397 80.8345 12.0675 81.0955 12.7493C81.313 13.2502 81.7126 13.6498 82.2135 13.8672C82.8926 14.1283 83.6181 14.2475 84.345 14.2175H87.207Z" fill="#001A33"/>
<path d="M105.095 15.194L98.9533 1.13764C98.9022 1.02429 98.8695 0.903532 98.8564 0.779894C98.8607 0.682046 98.8879 0.586569 98.9358 0.501137C98.9837 0.415705 99.051 0.342701 99.1322 0.287995C99.2996 0.149411 99.5111 0.0753785 99.7284 0.0793101C99.8687 0.073977 100.007 0.115895 100.12 0.198338C100.234 0.280782 100.316 0.398971 100.354 0.533944L105.929 13.3457L111.437 0.533944C111.471 0.402046 111.548 0.285367 111.656 0.20284C111.764 0.120314 111.897 0.0767822 112.033 0.0793101C112.138 0.0774686 112.241 0.095164 112.339 0.131481C112.49 0.155088 112.628 0.233359 112.725 0.351478C112.823 0.469597 112.874 0.619367 112.868 0.772441C112.867 0.89544 112.842 1.01703 112.794 1.13019L106.63 15.194C106.581 15.3511 106.481 15.4874 106.346 15.5818C106.211 15.6762 106.049 15.7233 105.885 15.7157H105.788C105.623 15.7233 105.461 15.6762 105.326 15.5818C105.191 15.4874 105.092 15.3511 105.042 15.194" fill="#001A33"/>
<path d="M123.146 0.615782L129.25 14.6424C129.301 14.7557 129.334 14.8765 129.347 15.0001C129.347 15.0948 129.326 15.1883 129.284 15.2735C129.243 15.3587 129.183 15.4334 129.108 15.492C128.94 15.6285 128.729 15.6999 128.512 15.6932C128.372 15.6999 128.233 15.6585 128.119 15.5759C128.005 15.4932 127.923 15.3743 127.886 15.2386L122.311 2.42686L116.803 15.2386C116.771 15.3712 116.694 15.4886 116.586 15.5714C116.477 15.6541 116.344 15.6971 116.207 15.6932C116.104 15.697 116 15.6818 115.902 15.6485C115.75 15.6233 115.612 15.5435 115.515 15.4241C115.417 15.3048 115.367 15.154 115.373 15.0001C115.373 14.8771 115.399 14.7555 115.447 14.6424L121.573 0.615782C121.621 0.457348 121.72 0.319345 121.855 0.223533C121.99 0.127721 122.153 0.0795511 122.319 0.0866175H122.416C122.581 0.0795511 122.744 0.127721 122.879 0.223533C123.014 0.319345 123.113 0.457348 123.161 0.615782" fill="#001A33"/>
<path d="M135.263 15.8212C135.088 15.8212 135 15.7467 135 15.5978V0.402234C135 0.253258 135.088 0.17877 135.263 0.17877H141.463C143.197 0.17877 144.572 0.566108 145.587 1.34078C146.621 2.11546 147.137 3.16573 147.137 4.49162V11.5084C147.137 12.8343 146.621 13.8845 145.587 14.6592C144.572 15.4339 143.197 15.8212 141.463 15.8212H135.263ZM136.865 14.3464C136.865 14.406 136.9 14.4358 136.97 14.4358H141.542C142.68 14.4358 143.582 14.1527 144.248 13.5866C144.931 13.0205 145.272 12.2607 145.272 11.3073V4.71508C145.272 3.74674 144.939 2.97952 144.274 2.41341C143.608 1.8473 142.698 1.56425 141.542 1.56425H136.97C136.9 1.56425 136.865 1.59404 136.865 1.65363V14.3464Z" fill="#0055A6"/>
<path d="M163.43 0.335195C163.518 0.230912 163.623 0.17877 163.745 0.17877H165.112C165.287 0.17877 165.374 0.253258 165.374 0.402234V15.5978C165.374 15.7467 165.287 15.8212 165.112 15.8212C165.112 15.8212 163.947 15.8212 163.772 15.8212C163.597 15.8212 163.509 15.7467 163.509 15.5978V3.17318C163.509 3.12849 163.491 3.0987 163.456 3.0838C163.421 3.0689 163.395 3.0838 163.378 3.12849L159.095 8.71508C159.008 8.81937 158.903 8.87151 158.78 8.87151H158.097C157.974 8.87151 157.869 8.82681 157.782 8.73743L153.499 3.19553C153.482 3.15084 153.456 3.13594 153.421 3.15084C153.386 3.16574 153.368 3.19553 153.368 3.24022V15.5978C153.368 15.7467 153.281 15.8212 153.105 15.8212H151.766C151.59 15.8212 151.503 15.7467 151.503 15.5978V0.402234C151.503 0.253258 151.59 0.17877 151.766 0.17877H153.132C153.272 0.17877 153.377 0.223463 153.447 0.312849L158.386 6.68156C158.403 6.69646 158.43 6.70391 158.465 6.70391C158.5 6.70391 158.526 6.69646 158.544 6.68156L163.43 0.335195Z" fill="#0055A6"/>
<path d="M175.852 16C173.873 16 172.306 15.6201 171.15 14.8603C170.011 14.1006 169.442 13.0875 169.442 11.8212V11.1285C169.442 10.9795 169.53 10.905 169.705 10.905H170.992C171.167 10.905 171.255 10.9795 171.255 11.1285V11.7318C171.255 12.5959 171.675 13.2961 172.516 13.8324C173.357 14.3538 174.521 14.6145 176.01 14.6145C177.359 14.6145 178.383 14.3762 179.084 13.8994C179.784 13.4078 180.135 12.7598 180.135 11.9553C180.135 11.4339 179.968 10.987 179.636 10.6145C179.32 10.2421 178.821 9.89199 178.138 9.56425C177.473 9.2365 176.527 8.85661 175.301 8.42458C173.987 7.97765 172.963 7.59032 172.227 7.26257C171.509 6.91992 170.922 6.4879 170.467 5.96648C170.029 5.43017 169.81 4.75978 169.81 3.95531C169.81 2.70391 170.318 1.73557 171.334 1.05028C172.367 0.350093 173.777 0 175.563 0C177.508 0 179.04 0.387337 180.161 1.16201C181.282 1.93668 181.842 2.96462 181.842 4.24581V4.73743C181.842 4.88641 181.755 4.96089 181.58 4.96089H180.266C180.091 4.96089 180.003 4.88641 180.003 4.73743V4.3352C180.003 3.47114 179.601 2.7635 178.795 2.21229C178.007 1.66108 176.903 1.38547 175.485 1.38547C174.241 1.38547 173.287 1.60149 172.621 2.03352C171.956 2.46555 171.623 3.09125 171.623 3.91061C171.623 4.44693 171.78 4.89385 172.096 5.2514C172.428 5.59404 172.893 5.89944 173.488 6.1676C174.101 6.42086 175.038 6.75605 176.299 7.17318C177.578 7.62011 178.602 8.03724 179.373 8.42458C180.161 8.81192 180.792 9.28864 181.264 9.85475C181.755 10.406 182 11.0838 182 11.8883C182 13.1397 181.457 14.1378 180.371 14.8827C179.285 15.6276 177.779 16 175.852 16Z" fill="#0055A6"/>
</svg>
