<svg width="16" height="16" viewBox="0 0 16 16" fill="none" xmlns="http://www.w3.org/2000/svg">
<path d="M8 0.228577C3.58333 0.228577 0 3.70953 0 8.00001C0 12.2905 3.58333 15.7714 8 15.7714C12.4167 15.7714 16 12.2905 16 8.00001C16 3.70953 12.4167 0.228577 8 0.228577ZM8.435 12.4524H7.17625C7.14792 12.4523 7.12079 12.4413 7.1008 12.4218C7.08081 12.4023 7.06958 12.3759 7.06958 12.3484V11.126C7.06958 11.0985 7.08081 11.0721 7.1008 11.0526C7.12079 11.0331 7.14792 11.0221 7.17625 11.022H8.435C8.46333 11.0221 8.49046 11.0331 8.51045 11.0526C8.53044 11.0721 8.54167 11.0985 8.54167 11.126V12.3484C8.54167 12.3759 8.53044 12.4023 8.51045 12.4218C8.49046 12.4413 8.46333 12.4523 8.435 12.4524ZM9.14333 8.44524C8.46792 8.88562 8.375 9.28917 8.375 9.65953V10.1048C8.375 10.137 8.36183 10.1679 8.33839 10.1906C8.31495 10.2134 8.28315 10.2262 8.25 10.2262H7.33333C7.30018 10.2262 7.26839 10.2134 7.24495 10.1906C7.2215 10.1679 7.20833 10.137 7.20833 10.1048V9.65953C7.20833 8.7727 7.62833 8.0676 8.4925 7.50377C9.29583 6.98001 9.75 6.6481 9.75 5.91832C9.75 5.42208 9.45833 5.04524 8.85458 4.76636C8.7125 4.70079 8.39625 4.63684 8.00708 4.64129C7.51875 4.64736 7.13958 4.7607 6.8475 4.98898C6.29667 5.41965 6.25 5.88877 6.25 5.89524C6.22713 6.03284 6.21542 6.17196 6.215 6.31134C6.215 6.34354 6.20183 6.37443 6.17839 6.3972C6.15495 6.41997 6.12315 6.43277 6.09 6.43277H5.20458C5.17355 6.43293 5.14357 6.42187 5.12047 6.40175C5.09736 6.38162 5.08279 6.35387 5.07958 6.32389C5.06458 6.16225 5.06584 5.99957 5.08333 5.83817C5.0925 5.73981 5.15833 4.85379 6.11542 4.10579C6.61167 3.71803 7.24292 3.51646 7.99042 3.50755C8.51958 3.50148 9.01667 3.58851 9.35375 3.74312C10.3625 4.20901 10.9167 4.9817 10.9167 5.91832C10.9167 7.28762 9.97458 7.90246 9.14333 8.44524Z" fill="#34475A"/>
</svg>
